<svg xmlns="http://www.w3.org/2000/svg" xmlns:xlink="http://www.w3.org/1999/xlink" width="2091.7" height="1843.4" contentStyleType="text/css" preserveAspectRatio="none" style="width:2091px;height:1843px;background:#fff" version="1.1" viewBox="0 0 2091 1843" zoomAndPan="magnify"><g><g id="cluster_Бэкенд-приложение"><rect width="824.2" height="985.4" x="1010.1" y="850.2" fill="none" rx="3.25" ry="3.25" style="stroke:#181818;stroke-width:1.3"/><rect width="19.5" height="13" x="1808.3" fill="none" style="stroke:#181818;stroke-width:1.3" y="856.7"/><rect width="5.2" height="2.6" x="1805.7" fill="none" style="stroke:#181818;stroke-width:1.3" y="859.3"/><rect width="5.2" height="2.6" x="1805.7" fill="none" style="stroke:#181818;stroke-width:1.3" y="864.5"/><text x="1327.95" y="886.74" fill="#000" font-family="sans-serif" font-size="18.2" font-weight="bold" lengthAdjust="spacing" textLength="188.5">Бэкенд-приложение</text></g><g id="cluster_Клиентское приложение"><rect width="925.6" height="1049.1" x="9.1" y="236.6" fill="none" rx="3.25" ry="3.25" style="stroke:#181818;stroke-width:1.3"/><rect width="19.5" height="13" x="908.7" fill="none" style="stroke:#181818;stroke-width:1.3" y="243.1"/><rect width="5.2" height="2.6" x="906.1" fill="none" style="stroke:#181818;stroke-width:1.3" y="245.7"/><rect width="5.2" height="2.6" x="906.1" fill="none" style="stroke:#181818;stroke-width:1.3" y="250.9"/><text x="357.5" y="273.14" fill="#000" font-family="sans-serif" font-size="18.2" font-weight="bold" lengthAdjust="spacing" textLength="228.8">Клиентское приложение</text></g><g id="elem_api"><rect width="189.8" height="63.207" x="1316.9" y="1323.4" fill="#F1F1F1" rx="3.25" ry="3.25" style="stroke:#181818;stroke-width:.65"/><rect width="19.5" height="13" x="1480.7" fill="#F1F1F1" style="stroke:#181818;stroke-width:.65" y="1329.9"/><rect width="5.2" height="2.6" x="1478.1" fill="#F1F1F1" style="stroke:#181818;stroke-width:.65" y="1332.5"/><rect width="5.2" height="2.6" x="1478.1" fill="#F1F1F1" style="stroke:#181818;stroke-width:.65" y="1337.7"/><text x="1336.4" y="1369.04" fill="#000" font-family="sans-serif" font-size="18.2" lengthAdjust="spacing" textLength="137.8">API приложения</text></g><g id="elem_auth"><rect width="197.6" height="87.415" x="1514.5" y="1504.75" fill="#F1F1F1" rx="3.25" ry="3.25" style="stroke:#181818;stroke-width:.65"/><rect width="19.5" height="13" x="1686.1" fill="#F1F1F1" style="stroke:#181818;stroke-width:.65" y="1511.25"/><rect width="5.2" height="2.6" x="1683.5" fill="#F1F1F1" style="stroke:#181818;stroke-width:.65" y="1513.85"/><rect width="5.2" height="2.6" x="1683.5" fill="#F1F1F1" style="stroke:#181818;stroke-width:.65" y="1519.05"/><text x="1534" y="1550.39" fill="#000" font-family="sans-serif" font-size="18.2" lengthAdjust="spacing" textLength="145.6">Аутентификация</text><text x="1534" y="1574.597" fill="#000" font-family="sans-serif" font-size="18.2" lengthAdjust="spacing" textLength="126.1">и авторизация</text></g><g id="elem_data_mg"><rect width="240.5" height="87.415" x="1031.55" y="1311.7" fill="#F1F1F1" rx="3.25" ry="3.25" style="stroke:#181818;stroke-width:.65"/><rect width="19.5" height="13" x="1246.05" fill="#F1F1F1" style="stroke:#181818;stroke-width:.65" y="1318.2"/><rect width="5.2" height="2.6" x="1243.45" fill="#F1F1F1" style="stroke:#181818;stroke-width:.65" y="1320.8"/><rect width="5.2" height="2.6" x="1243.45" fill="#F1F1F1" style="stroke:#181818;stroke-width:.65" y="1326"/><text x="1051.05" y="1357.34" fill="#000" font-family="sans-serif" font-size="18.2" lengthAdjust="spacing" textLength="104">Управление</text><text x="1051.05" y="1381.547" fill="#000" font-family="sans-serif" font-size="18.2" lengthAdjust="spacing" textLength="188.5">данными приложения</text></g><g id="elem_perf"><rect width="178.1" height="87.415" x="1303.25" y="1504.75" fill="#F1F1F1" rx="3.25" ry="3.25" style="stroke:#181818;stroke-width:.65"/><rect width="19.5" height="13" x="1455.35" fill="#F1F1F1" style="stroke:#181818;stroke-width:.65" y="1511.25"/><rect width="5.2" height="2.6" x="1452.75" fill="#F1F1F1" style="stroke:#181818;stroke-width:.65" y="1513.85"/><rect width="5.2" height="2.6" x="1452.75" fill="#F1F1F1" style="stroke:#181818;stroke-width:.65" y="1519.05"/><text x="1322.75" y="1550.39" fill="#000" font-family="sans-serif" font-size="18.2" lengthAdjust="spacing" textLength="126.1">Отслеживание</text><text x="1322.75" y="1574.597" fill="#000" font-family="sans-serif" font-size="18.2" lengthAdjust="spacing" textLength="89.7">состояния</text></g><g id="elem_icache"><ellipse cx="1097.2" cy="1109.55" fill="#F1F1F1" rx="10.4" ry="10.4" style="stroke:#181818;stroke-width:.65"/><text x="1014" y="1151.29" fill="#000" font-family="sans-serif" font-size="18.2" lengthAdjust="spacing" textLength="128.7">Кэшированные</text><text x="1014" y="1175.497" fill="#000" font-family="sans-serif" font-size="18.2" lengthAdjust="spacing" textLength="65">данные</text></g><text x="1021.15" y="773.817" fill="#000" font-family="sans-serif" font-size="18.2" lengthAdjust="spacing" textLength="106.6">Обновление</text><text x="1012.7" y="798.025" fill="#000" font-family="sans-serif" font-size="18.2" lengthAdjust="spacing" textLength="123.5">кэшированных</text><text x="1043.25" y="822.232" fill="#000" font-family="sans-serif" font-size="18.2" lengthAdjust="spacing" textLength="62.4">данных</text><rect width="15.6" height="15.6" x="1066.65" fill="#F1F1F1" style="stroke:#181818;stroke-width:1.9500000000000002" y="842.4"/><g id="elem_ilichess"><ellipse cx="1211.6" cy="1109.55" fill="#F1F1F1" rx="10.4" ry="10.4" style="stroke:#181818;stroke-width:.65"/><text x="1158.95" y="1151.29" fill="#000" font-family="sans-serif" font-size="18.2" lengthAdjust="spacing" textLength="66.3">Данные</text><text x="1158.95" y="1175.497" fill="#000" font-family="sans-serif" font-size="18.2" lengthAdjust="spacing" textLength="105.3">предметной</text><text x="1158.95" y="1199.705" fill="#000" font-family="sans-serif" font-size="18.2" lengthAdjust="spacing" textLength="70.2">области</text></g><text x="1196" y="773.817" fill="#000" font-family="sans-serif" font-size="18.2" lengthAdjust="spacing" textLength="92.3">Получение</text><text x="1210.95" y="798.025" fill="#000" font-family="sans-serif" font-size="18.2" lengthAdjust="spacing" textLength="62.4">данных</text><text x="1198.6" y="822.232" fill="#000" font-family="sans-serif" font-size="18.2" lengthAdjust="spacing" textLength="87.1">от Lichess</text><rect width="15.6" height="15.6" x="1234.35" fill="#F1F1F1" style="stroke:#181818;stroke-width:1.9500000000000002" y="842.4"/><g id="elem_iuser_data"><ellipse cx="1332.5" cy="1109.55" fill="#F1F1F1" rx="10.4" ry="10.4" style="stroke:#181818;stroke-width:.65"/><text x="1297.4" y="1151.29" fill="#000" font-family="sans-serif" font-size="18.2" lengthAdjust="spacing" textLength="158.6">Пользовательские</text><text x="1302.6" y="1175.497" fill="#000" font-family="sans-serif" font-size="18.2" lengthAdjust="spacing" textLength="65">данные</text></g><text x="1381.9" y="773.817" fill="#000" font-family="sans-serif" font-size="18.2" lengthAdjust="spacing" textLength="61.1">Чтение</text><text x="1354.6" y="798.025" fill="#000" font-family="sans-serif" font-size="18.2" lengthAdjust="spacing" textLength="115.7">и сохранение</text><text x="1381.25" y="822.232" fill="#000" font-family="sans-serif" font-size="18.2" lengthAdjust="spacing" textLength="62.4">данных</text><rect width="15.6" height="15.6" x="1404.65" fill="#F1F1F1" style="stroke:#181818;stroke-width:1.9500000000000002" y="842.4"/><g id="elem_iapi"><ellipse cx="1604.2" cy="1109.55" fill="#F1F1F1" rx="10.4" ry="10.4" style="stroke:#181818;stroke-width:.65"/><text x="1535.95" y="1151.29" fill="#000" font-family="sans-serif" font-size="18.2" lengthAdjust="spacing" textLength="136.5">Конечные точки</text></g><text x="1532.7" y="798.025" fill="#000" font-family="sans-serif" font-size="18.2" lengthAdjust="spacing" textLength="143">Предоставление</text><text x="1538.55" y="822.232" fill="#000" font-family="sans-serif" font-size="18.2" lengthAdjust="spacing" textLength="131.3">конечных точек</text><rect width="15.6" height="15.6" x="1596.4" fill="#F1F1F1" style="stroke:#181818;stroke-width:1.9500000000000002" y="842.4"/><g id="elem_GMN30"><path fill="#FEFFDD" d="M1481.35,1723.15 L1481.35,1781.1066 A0,0 0 0 0 1481.35,1781.1066 L1779.05,1781.1066 A0,0 0 0 0 1779.05,1781.1066 L1779.05,1736.15 L1766.05,1723.15 L1633.021,1723.15 L1616.888,1592.331 L1622.621,1723.15 L1481.35,1723.15 A0,0 0 0 0 1481.35,1723.15" style="stroke:#181818;stroke-width:.65"/><path fill="#FEFFDD" d="M1766.05,1723.15 L1766.05,1736.15 L1779.05,1736.15 L1766.05,1723.15" style="stroke:#181818;stroke-width:.65"/><text x="1489.15" y="1747.887" fill="#000" font-family="sans-serif" font-size="16.9" lengthAdjust="spacing" textLength="224.9">Отвечает за авторизованный</text><text x="1489.15" y="1770.365" fill="#000" font-family="sans-serif" font-size="16.9" lengthAdjust="spacing" textLength="270.4">доступ к API и ресурсам системы.</text></g><g id="elem_GMN33"><path fill="#FEFFDD" d="M1030.9,1485.9 L1030.9,1611.2916 A0,0 0 0 0 1030.9,1611.2916 L1277.9,1611.2916 A0,0 0 0 0 1277.9,1611.2916 L1277.9,1498.9 L1264.9,1485.9 L1158.768,1485.9 L1152.372,1398.813 L1148.368,1485.9 L1030.9,1485.9 A0,0 0 0 0 1030.9,1485.9" style="stroke:#181818;stroke-width:.65"/><path fill="#FEFFDD" d="M1264.9,1485.9 L1264.9,1498.9 L1277.9,1498.9 L1264.9,1485.9" style="stroke:#181818;stroke-width:.65"/><text x="1038.7" y="1510.637" fill="#000" font-family="sans-serif" font-size="16.9" lengthAdjust="spacing" textLength="171.6">Управление списками</text><text x="1038.7" y="1533.115" fill="#000" font-family="sans-serif" font-size="16.9" lengthAdjust="spacing" textLength="219.7">пользователя, настройками.</text><text x="1038.7" y="1555.593" fill="#000" font-family="sans-serif" font-size="16.9" lengthAdjust="spacing" textLength="92.3">Управление</text><text x="1038.7" y="1578.072" fill="#000" font-family="sans-serif" font-size="16.9" lengthAdjust="spacing" textLength="209.3">анализируемыми данными</text><text x="1038.7" y="1600.55" fill="#000" font-family="sans-serif" font-size="16.9" lengthAdjust="spacing" textLength="133.9">и их обновление.</text></g><g id="elem_GMN36"><path fill="#FEFFDD" d="M1288.95,1690 L1288.95,1815.3916 A0,0 0 0 0 1288.95,1815.3916 L1474.85,1815.3916 A0,0 0 0 0 1474.85,1815.3916 L1474.85,1703 L1461.85,1690 L1390.272,1690 L1390.09,1592.331 L1379.872,1690 L1288.95,1690 A0,0 0 0 0 1288.95,1690" style="stroke:#181818;stroke-width:.65"/><path fill="#FEFFDD" d="M1461.85,1690 L1461.85,1703 L1474.85,1703 L1461.85,1690" style="stroke:#181818;stroke-width:.65"/><text x="1296.75" y="1714.737" fill="#000" font-family="sans-serif" font-size="16.9" lengthAdjust="spacing" textLength="158.6">Проверка состояния</text><text x="1296.75" y="1737.215" fill="#000" font-family="sans-serif" font-size="16.9" lengthAdjust="spacing" textLength="154.7">системы, настройка</text><text x="1296.75" y="1759.694" fill="#000" font-family="sans-serif" font-size="16.9" lengthAdjust="spacing" textLength="102.7">логирования,</text><text x="1296.75" y="1782.172" fill="#000" font-family="sans-serif" font-size="16.9" lengthAdjust="spacing" textLength="153.4">политики повторной</text><text x="1296.75" y="1804.65" fill="#000" font-family="sans-serif" font-size="16.9" lengthAdjust="spacing" textLength="150.8">отправки запросов.</text></g><g id="elem_GMN39"><path fill="#FEFFDD" d="M1551.55,1303.9 L1551.55,1350.05 L1506.856,1355.25 L1551.55,1360.45 L1551.55,1406.8133 A0,0 0 0 0 1551.55,1406.8133 L1812.85,1406.8133 A0,0 0 0 0 1812.85,1406.8133 L1812.85,1316.9 L1799.85,1303.9 L1551.55,1303.9 A0,0 0 0 0 1551.55,1303.9" style="stroke:#181818;stroke-width:.65"/><path fill="#FEFFDD" d="M1799.85,1303.9 L1799.85,1316.9 L1812.85,1316.9 L1799.85,1303.9" style="stroke:#181818;stroke-width:.65"/><text x="1559.35" y="1328.637" fill="#000" font-family="sans-serif" font-size="16.9" lengthAdjust="spacing" textLength="208">Cодержит конечные точки,</text><text x="1559.35" y="1351.115" fill="#000" font-family="sans-serif" font-size="16.9" lengthAdjust="spacing" textLength="193.7">вызываемые клиентским</text><text x="1559.35" y="1373.593" fill="#000" font-family="sans-serif" font-size="16.9" lengthAdjust="spacing" textLength="119.6">приложением и</text><text x="1559.35" y="1396.072" fill="#000" font-family="sans-serif" font-size="16.9" lengthAdjust="spacing" textLength="234">другими пользователями API.</text></g><g id="elem_ui"><rect width="210.6" height="87.415" x="156" y="681.2" fill="#F1F1F1" rx="3.25" ry="3.25" style="stroke:#181818;stroke-width:.65"/><rect width="19.5" height="13" x="340.6" fill="#F1F1F1" style="stroke:#181818;stroke-width:.65" y="687.7"/><rect width="5.2" height="2.6" x="338" fill="#F1F1F1" style="stroke:#181818;stroke-width:.65" y="690.3"/><rect width="5.2" height="2.6" x="338" fill="#F1F1F1" style="stroke:#181818;stroke-width:.65" y="695.5"/><text x="175.5" y="726.84" fill="#000" font-family="sans-serif" font-size="18.2" lengthAdjust="spacing" textLength="158.6">Пользовательский</text><text x="175.5" y="751.047" fill="#000" font-family="sans-serif" font-size="18.2" lengthAdjust="spacing" textLength="94.9">интерфейс</text></g><g id="elem_auth_client"><rect width="197.6" height="87.415" x="35.1" y="950.95" fill="#F1F1F1" rx="3.25" ry="3.25" style="stroke:#181818;stroke-width:.65"/><rect width="19.5" height="13" x="206.7" fill="#F1F1F1" style="stroke:#181818;stroke-width:.65" y="957.45"/><rect width="5.2" height="2.6" x="204.1" fill="#F1F1F1" style="stroke:#181818;stroke-width:.65" y="960.05"/><rect width="5.2" height="2.6" x="204.1" fill="#F1F1F1" style="stroke:#181818;stroke-width:.65" y="965.25"/><text x="54.6" y="996.59" fill="#000" font-family="sans-serif" font-size="18.2" lengthAdjust="spacing" textLength="145.6">Аутентификация</text><text x="54.6" y="1020.797" fill="#000" font-family="sans-serif" font-size="18.2" lengthAdjust="spacing" textLength="126.1">и авторизация</text></g><g id="elem_data_mg_client"><rect width="240.5" height="87.415" x="507.65" y="681.2" fill="#F1F1F1" rx="3.25" ry="3.25" style="stroke:#181818;stroke-width:.65"/><rect width="19.5" height="13" x="722.15" fill="#F1F1F1" style="stroke:#181818;stroke-width:.65" y="687.7"/><rect width="5.2" height="2.6" x="719.55" fill="#F1F1F1" style="stroke:#181818;stroke-width:.65" y="690.3"/><rect width="5.2" height="2.6" x="719.55" fill="#F1F1F1" style="stroke:#181818;stroke-width:.65" y="695.5"/><text x="527.15" y="726.84" fill="#000" font-family="sans-serif" font-size="18.2" lengthAdjust="spacing" textLength="104">Управление</text><text x="527.15" y="751.047" fill="#000" font-family="sans-serif" font-size="18.2" lengthAdjust="spacing" textLength="188.5">данными приложения</text></g><g id="elem_perf_client"><rect width="178.1" height="87.415" x="286.65" y="950.95" fill="#F1F1F1" rx="3.25" ry="3.25" style="stroke:#181818;stroke-width:.65"/><rect width="19.5" height="13" x="438.75" fill="#F1F1F1" style="stroke:#181818;stroke-width:.65" y="957.45"/><rect width="5.2" height="2.6" x="436.15" fill="#F1F1F1" style="stroke:#181818;stroke-width:.65" y="960.05"/><rect width="5.2" height="2.6" x="436.15" fill="#F1F1F1" style="stroke:#181818;stroke-width:.65" y="965.25"/><text x="306.15" y="996.59" fill="#000" font-family="sans-serif" font-size="18.2" lengthAdjust="spacing" textLength="126.1">Отслеживание</text><text x="306.15" y="1020.797" fill="#000" font-family="sans-serif" font-size="18.2" lengthAdjust="spacing" textLength="89.7">состояния</text></g><text x="213.2" y="184.425" fill="#000" font-family="sans-serif" font-size="18.2" lengthAdjust="spacing" textLength="143">Взаимодействие</text><text x="231.4" y="208.632" fill="#000" font-family="sans-serif" font-size="18.2" lengthAdjust="spacing" textLength="106.6">с браузером</text><rect width="15.6" height="15.6" x="276.9" fill="#F1F1F1" style="stroke:#181818;stroke-width:1.9500000000000002" y="228.8"/><g id="elem_ipages"><ellipse cx="261.3" cy="412.1" fill="#F1F1F1" rx="10.4" ry="10.4" style="stroke:#181818;stroke-width:.65"/><text x="217.1" y="453.84" fill="#000" font-family="sans-serif" font-size="18.2" lengthAdjust="spacing" textLength="88.4">Страницы</text><text x="217.1" y="478.047" fill="#000" font-family="sans-serif" font-size="18.2" lengthAdjust="spacing" textLength="49.4">сайта</text></g><text x="484.25" y="208.632" fill="#000" font-family="sans-serif" font-size="18.2" lengthAdjust="spacing" textLength="117">Поиск данных</text><rect width="15.6" height="15.6" x="534.95" fill="#F1F1F1" style="stroke:#181818;stroke-width:1.9500000000000002" y="228.8"/><g id="elem_isearch_client"><ellipse cx="395.2" cy="412.1" fill="#F1F1F1" rx="10.4" ry="10.4" style="stroke:#181818;stroke-width:.65"/><text x="328.25" y="453.84" fill="#000" font-family="sans-serif" font-size="18.2" lengthAdjust="spacing" textLength="133.9">Конечная точка</text><text x="328.25" y="478.047" fill="#000" font-family="sans-serif" font-size="18.2" lengthAdjust="spacing" textLength="58.5">поиска</text></g><text x="863.2" y="526.975" fill="#000" font-family="sans-serif" font-size="18.2" lengthAdjust="spacing" textLength="143">Взаимодействие</text><text x="853.45" y="551.182" fill="#000" font-family="sans-serif" font-size="18.2" lengthAdjust="spacing" textLength="162.5">с бэкенд-сервером</text><rect width="15.6" height="15.6" x="926.9" fill="#F1F1F1" style="stroke:#181818;stroke-width:1.9500000000000002" y="571.35"/><g id="elem_iapi_client"><ellipse cx="822.9" cy="724.75" fill="#F1F1F1" rx="10.4" ry="10.4" style="stroke:#181818;stroke-width:.65"/><text x="754.65" y="766.49" fill="#000" font-family="sans-serif" font-size="18.2" lengthAdjust="spacing" textLength="136.5">Конечные точки</text></g><text x="707.2" y="208.632" fill="#000" font-family="sans-serif" font-size="18.2" lengthAdjust="spacing" textLength="206.7">Получение данных кэша</text><rect width="15.6" height="15.6" x="802.75" fill="#F1F1F1" style="stroke:#181818;stroke-width:1.9500000000000002" y="228.8"/><g id="elem_icache_client"><ellipse cx="824.2" cy="412.1" fill="#F1F1F1" rx="10.4" ry="10.4" style="stroke:#181818;stroke-width:.65"/><text x="781.95" y="453.84" fill="#000" font-family="sans-serif" font-size="18.2" lengthAdjust="spacing" textLength="84.5">Конечные</text><text x="781.95" y="478.047" fill="#000" font-family="sans-serif" font-size="18.2" lengthAdjust="spacing" textLength="46.8">точки</text><text x="781.95" y="502.255" fill="#000" font-family="sans-serif" font-size="18.2" lengthAdjust="spacing" textLength="41.6">кэша</text></g><g id="elem_GMN68"><path fill="#FEFFDD" d="M31.2,1162.2 L31.2,1265.1133 A0,0 0 0 0 31.2,1265.1133 L231.4,1265.1133 A0,0 0 0 0 231.4,1265.1133 L231.4,1175.2 L218.4,1162.2 L137.098,1162.2 L133.38,1038.57 L126.698,1162.2 L31.2,1162.2 A0,0 0 0 0 31.2,1162.2" style="stroke:#181818;stroke-width:.65"/><path fill="#FEFFDD" d="M218.4,1162.2 L218.4,1175.2 L231.4,1175.2 L218.4,1162.2" style="stroke:#181818;stroke-width:.65"/><text x="39" y="1186.937" fill="#000" font-family="sans-serif" font-size="16.9" lengthAdjust="spacing" textLength="93.6">Отвечает за</text><text x="39" y="1209.415" fill="#000" font-family="sans-serif" font-size="16.9" lengthAdjust="spacing" textLength="126.1">авторизованный</text><text x="39" y="1231.893" fill="#000" font-family="sans-serif" font-size="16.9" lengthAdjust="spacing" textLength="172.9">доступ к функционалу</text><text x="39" y="1254.372" fill="#000" font-family="sans-serif" font-size="16.9" lengthAdjust="spacing" textLength="71.5">системы.</text></g><g id="elem_GMN71"><path fill="#FEFFDD" d="M514.8,932.1 L514.8,1057.4916 A0,0 0 0 0 514.8,1057.4916 L741,1057.4916 A0,0 0 0 0 741,1057.4916 L741,945.1 L728,932.1 L633.1,932.1 L627.9,768.378 L622.7,932.1 L514.8,932.1 A0,0 0 0 0 514.8,932.1" style="stroke:#181818;stroke-width:.65"/><path fill="#FEFFDD" d="M728,932.1 L728,945.1 L741,945.1 L728,932.1" style="stroke:#181818;stroke-width:.65"/><text x="522.6" y="956.837" fill="#000" font-family="sans-serif" font-size="16.9" lengthAdjust="spacing" textLength="156">Поисковые запросы</text><text x="522.6" y="979.315" fill="#000" font-family="sans-serif" font-size="16.9" lengthAdjust="spacing" textLength="109.2">к Lichess API,</text><text x="522.6" y="1001.793" fill="#000" font-family="sans-serif" font-size="16.9" lengthAdjust="spacing" textLength="127.4">взаимодействие</text><text x="522.6" y="1024.272" fill="#000" font-family="sans-serif" font-size="16.9" lengthAdjust="spacing" textLength="184.6">с бэкенд-приложением,</text><text x="522.6" y="1046.75" fill="#000" font-family="sans-serif" font-size="16.9" lengthAdjust="spacing" textLength="198.9">взаимодействие с кэшем</text></g><g id="elem_GMN74"><path fill="#FEFFDD" d="M276.9,1184.3 L276.9,1242.2566 A0,0 0 0 0 276.9,1242.2566 L487.5,1242.2566 A0,0 0 0 0 487.5,1242.2566 L487.5,1197.3 L474.5,1184.3 L386.555,1184.3 L376.987,1038.57 L376.155,1184.3 L276.9,1184.3 A0,0 0 0 0 276.9,1184.3" style="stroke:#181818;stroke-width:.65"/><path fill="#FEFFDD" d="M474.5,1184.3 L474.5,1197.3 L487.5,1197.3 L474.5,1184.3" style="stroke:#181818;stroke-width:.65"/><text x="284.7" y="1209.037" fill="#000" font-family="sans-serif" font-size="16.9" lengthAdjust="spacing" textLength="183.3">Проверка подключения</text><text x="284.7" y="1231.515" fill="#000" font-family="sans-serif" font-size="16.9" lengthAdjust="spacing" textLength="170.3">и состояния системы.</text></g><g id="elem_GMN77"><path fill="#FEFFDD" d="M29.9,360.75 L29.9,463.6633 A0,0 0 0 0 29.9,463.6633 L135.148,463.6633 L241.475,680.849 L145.548,463.6633 L204.1,463.6633 A0,0 0 0 0 204.1,463.6633 L204.1,373.75 L191.1,360.75 L29.9,360.75 A0,0 0 0 0 29.9,360.75" style="stroke:#181818;stroke-width:.65"/><path fill="#FEFFDD" d="M191.1,360.75 L191.1,373.75 L204.1,373.75 L191.1,360.75" style="stroke:#181818;stroke-width:.65"/><text x="37.7" y="385.487" fill="#000" font-family="sans-serif" font-size="16.9" lengthAdjust="spacing" textLength="92.3">Управление</text><text x="37.7" y="407.965" fill="#000" font-family="sans-serif" font-size="16.9" lengthAdjust="spacing" textLength="106.6">дашбордами,</text><text x="37.7" y="430.443" fill="#000" font-family="sans-serif" font-size="16.9" lengthAdjust="spacing" textLength="91">управление</text><text x="37.7" y="452.922" fill="#000" font-family="sans-serif" font-size="16.9" lengthAdjust="spacing" textLength="146.9">списками анализа.</text></g><g id="elem_redis"><path fill="#F1F1F1" d="M1079.65,218.4 C1079.65,205.4 1134.9,205.4 1134.9,205.4 C1134.9,205.4 1190.15,205.4 1190.15,218.4 L1190.15,254.3074 C1190.15,267.3074 1134.9,267.3074 1134.9,267.3074 C1134.9,267.3074 1079.65,267.3074 1079.65,254.3074 L1079.65,218.4" style="stroke:#181818;stroke-width:.65"/><path fill="none" d="M1079.65,218.4 C1079.65,231.4 1134.9,231.4 1134.9,231.4 C1134.9,231.4 1190.15,231.4 1190.15,218.4" style="stroke:#181818;stroke-width:.65"/><text x="1092.65" y="256.24" fill="#000" font-family="sans-serif" font-size="18.2" lengthAdjust="spacing" textLength="84.5">Redis-кэш</text></g><g id="elem_db"><path fill="#F1F1F1" d="M1913.6,820.3 C1913.6,807.3 1991.6,807.3 1991.6,807.3 C1991.6,807.3 2069.6,807.3 2069.6,820.3 L2069.6,880.4148 C2069.6,893.4148 1991.6,893.4148 1991.6,893.4148 C1991.6,893.4148 1913.6,893.4148 1913.6,880.4148 L1913.6,820.3" style="stroke:#181818;stroke-width:.65"/><path fill="none" d="M1913.6,820.3 C1913.6,833.3 1991.6,833.3 1991.6,833.3 C1991.6,833.3 2069.6,833.3 2069.6,820.3" style="stroke:#181818;stroke-width:.65"/><text x="1926.6" y="858.14" fill="#000" font-family="sans-serif" font-size="18.2" lengthAdjust="spacing" textLength="66.3">Данные</text><text x="1926.6" y="882.347" fill="#000" font-family="sans-serif" font-size="18.2" lengthAdjust="spacing" textLength="130">пользователей</text></g><g id="elem_lichess_cloud"><path fill="#F1F1F1" d="M972.383,47.7499 C975.5872,41.1775 979.2637,38.8916 985.267,44.8784 C988.8156,36.9763 994.0455,35.5293 999.9076,42.6192 C1002.5425,34.864 1008.5647,34.0586 1013.8997,39.8253 C1015.2669,31.3743 1021.3136,30.915 1027.2996,34.8135 C1033.9024,29.2678 1041.2739,30.491 1043.1907,39.8197 C1047.3078,34.0413 1051.7832,34.3478 1055.4554,40.2855 C1060.7707,34.5972 1067.7199,36.3248 1069.8295,43.789 C1075.3693,36.8342 1080.2745,38.61 1084.0365,45.6002 C1098.8332,49.9387 1100.5689,58.1571 1090.6398,69.3657 C1098.5351,78.6211 1098.4381,85.9804 1085.8713,90.6521 C1078.7178,100.5403 1071.5821,98.4758 1065.8357,89.1824 C1061.8783,98.022 1052.8946,100.3313 1047.2689,90.8755 C1041.464,98.8942 1035.152,101.6288 1028.6255,91.6218 C1024.0026,99.8233 1015.1533,99.9758 1010.5266,91.6259 C1004.2115,100.8375 997.9465,99.8718 991.6808,91.5727 C984.7907,99.2772 976.0819,99.7158 971.1581,89.3408 C958.048,88.4004 954.6065,78.5737 961.0563,68.2603 C953.9516,57.12 960.9636,48.6603 972.383,47.7499" style="stroke:#181818;stroke-width:.65"/><text x="979.55" y="74.24" fill="#000" font-family="sans-serif" font-size="18.2" lengthAdjust="spacing" textLength="94.9">Lichess.org</text></g><g id="elem_lichess_api"><ellipse cx="902.2" cy="66.95" fill="#F1F1F1" rx="10.4" ry="10.4" style="stroke:#181818;stroke-width:.65"/><text x="854.75" y="108.69" fill="#000" font-family="sans-serif" font-size="18.2" lengthAdjust="spacing" textLength="94.9">Lichess API</text></g><g id="elem_user_pages"><ellipse cx="284.7" cy="66.95" fill="#F1F1F1" rx="10.4" ry="10.4" style="stroke:#181818;stroke-width:.65"/><text x="240.5" y="108.69" fill="#000" font-family="sans-serif" font-size="18.2" lengthAdjust="spacing" textLength="88.4">Страницы</text><text x="240.5" y="132.897" fill="#000" font-family="sans-serif" font-size="18.2" lengthAdjust="spacing" textLength="49.4">сайта</text></g><g id="elem_redis_api"><ellipse cx="1021.8" cy="236.6" fill="#F1F1F1" rx="10.4" ry="10.4" style="stroke:#181818;stroke-width:.65"/><text x="927.55" y="278.34" fill="#000" font-family="sans-serif" font-size="18.2" lengthAdjust="spacing" textLength="188.5">Конечные точки Redis</text></g><g id="elem_back_api"><ellipse cx="1326" cy="579.15" fill="#F1F1F1" rx="10.4" ry="10.4" style="stroke:#181818;stroke-width:.65"/><text x="1290.25" y="620.89" fill="#000" font-family="sans-serif" font-size="18.2" lengthAdjust="spacing" textLength="71.5">Backend</text><text x="1290.25" y="645.097" fill="#000" font-family="sans-serif" font-size="18.2" lengthAdjust="spacing" textLength="27.3">API</text></g><g id="elem_sql"><ellipse cx="1856.4" cy="850.2" fill="#F1F1F1" rx="10.4" ry="10.4" style="stroke:#181818;stroke-width:.65"/><text x="1802.45" y="891.94" fill="#000" font-family="sans-serif" font-size="18.2" lengthAdjust="spacing" textLength="107.9">TCP/IP | SQL</text></g><g id="elem_api_users"><ellipse cx="1443" cy="527.15" fill="#F1F1F1" rx="10.4" ry="10.4" style="stroke:#181818;stroke-width:.65"/><path fill="none" d="M1443,537.55 L1443,572.65 M1426.1,547.95 L1459.9,547.95 M1443,572.65 L1426.1,592.15 M1443,572.65 L1459.9,592.15" style="stroke:#181818;stroke-width:.65"/><text x="1382.55" y="613.74" fill="#000" font-family="sans-serif" font-size="18.2" lengthAdjust="spacing" textLength="120.9">Пользователи</text><text x="1382.55" y="637.947" fill="#000" font-family="sans-serif" font-size="18.2" lengthAdjust="spacing" textLength="27.3">API</text></g><g id="elem_browser"><ellipse cx="414.7" cy="29.659" fill="#F1F1F1" rx="21.859" ry="21.859" style="stroke:#181818;stroke-width:.65"/><rect width="145.6" height="74.415" x="341.9" y="51.518" fill="#F1F1F1" rx="21.859" ry="21.859" style="stroke:#181818;stroke-width:.65"/><text x="354.9" y="84.158" fill="#000" font-family="sans-serif" font-size="18.2" lengthAdjust="spacing" textLength="70.2">Браузер</text><text x="354.9" y="108.365" fill="#000" font-family="sans-serif" font-size="18.2" lengthAdjust="spacing" textLength="119.6">пользователя</text></g><g id="link_api_data_mg"><path id="api-to-data_mg" fill="none" d="M1316.887,1355.25 C1301.976,1355.25 1294.865,1355.25 1279.954,1355.25" style="stroke:#181818;stroke-width:1.3;stroke-dasharray:7,7"/><polygon fill="#181818" points="1272.154 1355.25 1283.854 1360.45 1278.654 1355.25 1283.854 1350.05 1272.154 1355.25" style="stroke:#181818;stroke-width:1.3"/></g><g id="link_api_perf"><path id="api-to-perf" fill="none" d="M1408.667,1387.152 C1405.417,1418.898 1401.1043,1461.0588 1397.4513,1496.6528" style="stroke:#181818;stroke-width:1.3;stroke-dasharray:7,7"/><polygon fill="#181818" points="1396.655 1504.412 1403.022 1493.304 1397.319 1497.946 1392.677 1492.242 1396.655 1504.412" style="stroke:#181818;stroke-width:1.3"/></g><g id="link_api_auth"><path id="api-to-auth" fill="none" d="M1444.17,1387.152 C1477.775,1418.898 1524.9122,1463.4603 1562.5732,1499.0543" style="stroke:#181818;stroke-width:1.3;stroke-dasharray:7,7"/><polygon fill="#181818" points="1568.242 1504.412 1563.311 1492.596 1563.518 1499.947 1556.167 1500.155 1568.242 1504.412" style="stroke:#181818;stroke-width:1.3"/></g><g id="link_icache_data_mg"><path id="icache-backto-data_mg" fill="none" d="M1102.3898,1133.9858 C1109.6568,1166.3298 1129.232,1253.486 1142.232,1311.323" style="stroke:#181818;stroke-width:1.3"/><path fill="none" d="M1089.6902,1127.6164 A11.7,11.7 0 0 0 1111.1442 1122.7962" style="stroke:#181818;stroke-width:1.9500000000000002"/></g><g id="link_icache_cache_p"><path id="icache-cache_p" fill="none" d="M1096.277,1097.486 C1092.546,1054.235 1078.727,893.62 1075.685,858.364" style="stroke:#181818;stroke-width:1.3"/></g><g id="link_ilichess_data_mg"><path id="ilichess-backto-data_mg" fill="none" d="M1205.9208,1133.9257 C1197.9648,1166.2697 1176.513,1253.486 1162.291,1311.323" style="stroke:#181818;stroke-width:1.3"/><path fill="none" d="M1197.394,1122.5617 A11.7,11.7 0 0 0 1218.7463 1127.8139" style="stroke:#181818;stroke-width:1.9500000000000002"/></g><g id="link_ilichess_lichess_p"><path id="ilichess-lichess_p" fill="none" d="M1212.913,1097.486 C1218.165,1054.235 1237.678,893.62 1241.968,858.364" style="stroke:#181818;stroke-width:1.3"/></g><g id="link_iuser_data_data_mg"><path id="iuser_data-backto-data_mg" fill="none" d="M1316.982,1131.7341 C1292.932,1164.0781 1226.472,1253.486 1183.481,1311.323" style="stroke:#181818;stroke-width:1.3"/><path fill="none" d="M1313.5286,1117.9529 A11.7,11.7 0 0 0 1331.1739 1131.0735" style="stroke:#181818;stroke-width:1.9500000000000002"/></g><g id="link_iuser_data_user_data_p"><path id="iuser_data-user_data_p" fill="none" d="M1335.88,1097.486 C1349.452,1054.235 1399.879,893.62 1410.942,858.364" style="stroke:#181818;stroke-width:1.3"/></g><g id="link_iapi_api"><path id="iapi-api" fill="none" d="M1595.932,1121.302 C1568.463,1156.012 1479.478,1268.436 1436.071,1323.283" style="stroke:#181818;stroke-width:1.3"/><text x="1565.2" y="1198.637" fill="#000" font-family="sans-serif" font-size="16.9" lengthAdjust="spacing" textLength="46.8">HTTP,</text><text x="1563.9" y="1221.115" fill="#000" font-family="sans-serif" font-size="16.9" lengthAdjust="spacing" textLength="49.4">JSON,</text><text x="1564.55" y="1243.593" fill="#000" font-family="sans-serif" font-size="16.9" lengthAdjust="spacing" textLength="48.1">OAuth</text></g><g id="link_iapi_clients_p"><path id="iapi-backto-clients_p" fill="none" d="M1604.2,1084.486 C1604.2,1041.235 1604.2,893.62 1604.2,858.364" style="stroke:#181818;stroke-width:1.3"/><path fill="none" d="M1615.1944,1093.4844 A11.7,11.7 0 0 0 1593.2056 1093.4844" style="stroke:#181818;stroke-width:1.9500000000000002"/></g><g id="link_ui_data_mg_client"><path id="ui-to-data_mg_client" fill="none" d="M366.912,724.75 C413.803,724.75 452.907,724.75 499.798,724.75" style="stroke:#181818;stroke-width:1.3;stroke-dasharray:7,7"/><polygon fill="#181818" points="507.598 724.75 495.898 719.55 501.098 724.75 495.898 729.95 507.598 724.75" style="stroke:#181818;stroke-width:1.3"/></g><g id="link_ui_perf_client"><path id="ui-to-perf_client" fill="none" d="M279.422,768.378 C300.781,818.259 332.9918,893.4701 354.4028,943.4551" style="stroke:#181818;stroke-width:1.3;stroke-dasharray:7,7"/><polygon fill="#181818" points="357.474 950.625 357.647 937.823 354.915 944.65 348.087 941.918 357.474 950.625" style="stroke:#181818;stroke-width:1.3"/></g><g id="link_ui_auth_client"><path id="ui-to-auth_client" fill="none" d="M241.111,768.378 C217.334,818.259 181.3915,893.5991 157.5625,943.5841" style="stroke:#181818;stroke-width:1.3;stroke-dasharray:7,7"/><polygon fill="#181818" points="154.206 950.625 163.935 942.301 157.003 944.758 154.547 937.826 154.206 950.625" style="stroke:#181818;stroke-width:1.3"/></g><g id="link_ipages_ui"><path id="ipages-ui" fill="none" d="M261.3,424.073 C261.3,464.321 261.3,608.322 261.3,680.94" style="stroke:#181818;stroke-width:1.3"/></g><g id="link_ipages_user_p_client"><path id="ipages-backto-user_p_client" fill="none" d="M264.4957,387.1789 C268.8897,354.6399 280.267,270.621 283.816,244.465" style="stroke:#181818;stroke-width:1.3"/><path fill="none" d="M274.187,397.5677 A11.7,11.7 0 0 0 252.396 394.6251" style="stroke:#181818;stroke-width:1.9500000000000002"/></g><g id="link_isearch_client_data_mg_client"><path id="isearch_client-backto-data_mg_client" fill="none" d="M411.0123,434.4698 C441.2243,474.7178 541.489,608.322 595.998,680.94" style="stroke:#181818;stroke-width:1.3"/><path fill="none" d="M396.8175,433.8736 A11.7,11.7 0 0 0 414.4031 420.673" style="stroke:#181818;stroke-width:1.9500000000000002"/></g><g id="link_isearch_client_search_p"><path id="isearch_client-search_p" fill="none" d="M404.404,400.062 C432.289,367.523 515.359,270.621 537.771,244.465" style="stroke:#181818;stroke-width:1.3"/></g><g id="link_data_mg_client_iapi_client"><path id="data_mg_client-to-iapi_client" fill="none" d="M748.254,724.75 C769.054,724.75 776.854,724.75 797.654,724.75" style="stroke:#181818;stroke-width:1.3"/><path fill="none" d="M806.6524,713.7556 A11.7,11.7 0 0 0 806.6524 735.7444" style="stroke:#181818;stroke-width:1.9500000000000002"/></g><g id="link_iapi_client_back_p_client"><path id="iapi_client-back_p_client" fill="none" d="M831.194,712.855 C853.073,684.866 911.924,609.583 929.604,586.963" style="stroke:#181818;stroke-width:1.3"/></g><g id="link_icache_client_data_mg_client"><path id="icache_client-backto-data_mg_client" fill="none" d="M815.8794,435.9951 C810.7314,449.4631 805.012,460.941 790.4,477.1 C769.444,500.279 752.596,492.687 731.9,516.1 C688.298,565.435 657.969,636.337 641.745,681.122" style="stroke:#181818;stroke-width:1.3"/><path fill="none" d="M808.8225,423.6644 A11.7,11.7 0 0 0 829.362 431.5154" style="stroke:#181818;stroke-width:1.9500000000000002"/></g><g id="link_icache_client_cache_p_client"><path id="icache_client-cache_p_client" fill="none" d="M823.394,400.062 C820.95,367.523 813.657,270.621 811.694,244.465" style="stroke:#181818;stroke-width:1.3"/></g><g id="link_lichess_api_lichess_cloud"><path id="lichess_api-lichess_cloud" fill="none" d="M914.394,66.95 C929.487,66.95 944.593,66.95 959.699,66.95" style="stroke:#181818;stroke-width:1.3"/></g><g id="link_user_pages_browser"><path id="user_pages-backto-browser" fill="none" d="M309.894,66.95 C324.766,66.95 326.651,66.95 341.523,66.95" style="stroke:#181818;stroke-width:1.3"/><path fill="none" d="M300.8956,77.9444 A11.7,11.7 0 0 0 300.8956 55.9556" style="stroke:#181818;stroke-width:1.9500000000000002"/></g><g id="link_redis_api_redis"><path id="redis_api-redis" fill="none" d="M1033.734,236.6 C1049.009,236.6 1064.297,236.6 1079.572,236.6" style="stroke:#181818;stroke-width:1.3"/></g><g id="link_back_api_api_users"><path id="back_api-backto-api_users" fill="none" d="M1350.882,579.15 C1365.663,579.15 1367.444,579.15 1382.225,579.15" style="stroke:#181818;stroke-width:1.3"/><path fill="none" d="M1341.8836,590.1444 A11.7,11.7 0 0 0 1341.8836 568.1556" style="stroke:#181818;stroke-width:1.9500000000000002"/></g><g id="link_sql_db"><path id="sql-db" fill="none" d="M1868.542,850.2 C1883.453,850.2 1898.351,850.2 1913.249,850.2" style="stroke:#181818;stroke-width:1.3"/></g><g id="link_back_api_clients_p"><path id="back_api-clients_p" fill="none" d="M1330.433,591.227 C1336.062,604.162 1346.657,626.106 1359.8,642.2 C1437.475,737.321 1563.185,822.25 1596.101,843.7" style="stroke:#181818;stroke-width:1.3"/></g><g id="link_redis_api_cache_p"><path id="redis_api-backto-cache_p" fill="none" d="M1023.8523,261.4589 C1030.4563,337.1969 1069.25,781.872 1074.528,842.309" style="stroke:#181818;stroke-width:1.3"/><path fill="none" d="M1012.1178,253.4495 A11.7,11.7 0 0 0 1034.0235 251.5395" style="stroke:#181818;stroke-width:1.9500000000000002"/></g><g id="link_lichess_api_lichess_p"><path id="lichess_api-backto-lichess_p" fill="none" d="M910.5246,91.0416 C915.5556,104.1066 921.193,113.893 937.3,126.1 C1057.875,217.464 1259.7,84.019 1259.7,235.3 C1259.7,235.3 1259.7,235.3 1259.7,580.45 C1259.7,685.048 1246.765,812.136 1243.528,842.27" style="stroke:#181818;stroke-width:1.3"/><path fill="none" d="M897.031,86.5952 A11.7,11.7 0 0 0 917.551 78.6935" style="stroke:#181818;stroke-width:1.9500000000000002"/></g><g id="link_user_data_p_sql"><path id="user_data_p-to-sql" fill="none" d="M1417.871,842.231 C1432.509,818.701 1479.426,749.593 1539.85,724.75 C1653.665,677.95 1717.482,652.015 1816.75,724.75 C1853.41,751.621 1857.1418,799.5134 1856.9338,825.3054" style="stroke:#181818;stroke-width:1.3"/><path fill="none" d="M1867.8553,834.3922 A11.7,11.7 0 0 0 1845.8672 834.2148" style="stroke:#181818;stroke-width:1.9500000000000002"/></g><g id="link_user_pages_user_p_client"><path id="user_pages-user_p_client" fill="none" d="M284.7,78.702 C284.7,110.123 284.7,203.19 284.7,228.748" style="stroke:#181818;stroke-width:1.3"/></g><g id="link_lichess_api_search_p"><path id="lichess_api-backto-search_p" fill="none" d="M878.4794,79.2982 C822.2934,105.4412 596.869,210.405 551.07,231.725" style="stroke:#181818;stroke-width:1.3"/><path fill="none" d="M881.9997,65.534 A11.7,11.7 0 0 0 891.276 85.4703" style="stroke:#181818;stroke-width:1.9500000000000002"/></g><g id="link_back_p_client_back_api"><path id="back_p_client-to-back_api" fill="none" d="M942.747,583.921 C988.819,599.274 1244.3489,602.8701 1301.4189,588.2841" style="stroke:#181818;stroke-width:1.3"/><path fill="none" d="M1307.4145,575.4039 A11.7,11.7 0 0 0 1312.8594 596.7079" style="stroke:#181818;stroke-width:1.9500000000000002"/></g><g id="link_cache_p_client_redis_api"><path id="cache_p_client-to-redis_api" fill="none" d="M818.506,242.645 C847.405,256.061 960.094,260.6939 997.521,248.4739" style="stroke:#181818;stroke-width:1.3"/><path fill="none" d="M1002.6626,235.2296 A11.7,11.7 0 0 0 1009.4874 256.1324" style="stroke:#181818;stroke-width:1.9500000000000002"/></g></g></svg>