<svg version="1.1" xmlns="http://www.w3.org/2000/svg" xmlns:xlink="http://www.w3.org/1999/xlink"
    width="772.0380859375" height="345">
    <defs />
    <g>
        <g>
            <rect fill="#C0C0C0" stroke="none" x="799" y="255" width="207.0380859375" height="76"
                transform="matrix(1 0 0 1 -237 -213)" fill-opacity="0.2" />
        </g>
        <g>
            <rect fill="#ffffff" stroke="none" x="792" y="248" width="207.0380859375" height="76"
                transform="matrix(1 0 0 1 -237 -213)" />
        </g>
        <g>
            <path fill="none" stroke="#000000" paint-order="fill stroke markers"
                d=" M 555 35 L 762.0380859375 35 L 762.0380859375 111 L 555 111 L 555 35 Z Z"
                stroke-miterlimit="10" stroke-dasharray="" />
        </g>
        <g>
            <path fill="none" stroke="#000000" paint-order="fill stroke markers"
                d=" M 555 63 L 762.0380859375 63" stroke-miterlimit="10" stroke-dasharray="" />
        </g>
        <g>
            <path fill="none" stroke="#000000" paint-order="fill stroke markers"
                d=" M 619 63 L 619 111" stroke-miterlimit="10" stroke-dasharray="" />
        </g>
        <g>
            <path fill="none" stroke="#000000" paint-order="fill stroke markers"
                d=" M 708.0400390625 63 L 708.0400390625 111" stroke-miterlimit="10"
                stroke-dasharray="" />
        </g>
        <g>
            <g>
                <path fill="none" stroke="none" />
                <text fill="#000000" stroke="none" font-family="Arial" font-size="18px"
                    font-style="normal" font-weight="bold" text-decoration="undefined"
                    x="895.51904296875" y="262" text-anchor="middle" dominant-baseline="central"
                    transform="matrix(1 0 0 1 -237 -213)">contains</text>
            </g>
        </g>
        <g>
            <g>
                <path fill="none" stroke="none" />
                <text fill="#000000" stroke="none" font-family="Arial" font-size="18px"
                    font-style="normal" font-weight="normal" text-decoration="undefined" x="797"
                    y="281" text-anchor="start" dominant-baseline="text-before-edge"
                    transform="matrix(1 0 0 1 -237 -213)">PK,FK</text>
            </g>
        </g>
        <g>
            <g>
                <path fill="none" stroke="none" />
                <text fill="#000000" stroke="none" font-family="Arial" font-size="18px"
                    font-style="normal" font-weight="normal" text-decoration="undefined" x="861"
                    y="281" text-anchor="start" dominant-baseline="text-before-edge"
                    transform="matrix(1 0 0 1 -237 -213)">list_id</text>
            </g>
        </g>
        <g>
            <g>
                <path fill="none" stroke="none" />
                <text fill="#000000" stroke="none" font-family="Arial" font-size="18px"
                    font-style="normal" font-weight="normal" text-decoration="undefined"
                    x="950.0400390625" y="281" text-anchor="start"
                    dominant-baseline="text-before-edge" transform="matrix(1 0 0 1 -237 -213)">UUID</text>
            </g>
        </g>
        <g>
            <g>
                <path fill="none" stroke="none" />
                <text fill="#000000" stroke="none" font-family="Arial" font-size="18px"
                    font-style="normal" font-weight="normal" text-decoration="undefined" x="797"
                    y="290" text-anchor="start" dominant-baseline="central"
                    transform="matrix(1 0 0 1 -237 -213)"></text>
            </g>
        </g>
        <g>
            <g>
                <path fill="none" stroke="none" />
                <text fill="#000000" stroke="none" font-family="Arial" font-size="18px"
                    font-style="normal" font-weight="normal" text-decoration="undefined" x="797"
                    y="301" text-anchor="start" dominant-baseline="text-before-edge"
                    transform="matrix(1 0 0 1 -237 -213)">PK</text>
            </g>
        </g>
        <g>
            <g>
                <path fill="none" stroke="none" />
                <text fill="#000000" stroke="none" font-family="Arial" font-size="18px"
                    font-style="normal" font-weight="normal" text-decoration="undefined" x="861"
                    y="301" text-anchor="start" dominant-baseline="text-before-edge"
                    transform="matrix(1 0 0 1 -237 -213)">player_id</text>
            </g>
        </g>
        <g>
            <g>
                <path fill="none" stroke="none" />
                <text fill="#000000" stroke="none" font-family="Arial" font-size="18px"
                    font-style="normal" font-weight="normal" text-decoration="undefined"
                    x="950.0400390625" y="301" text-anchor="start"
                    dominant-baseline="text-before-edge" transform="matrix(1 0 0 1 -237 -213)">UUID</text>
            </g>
        </g>
        <g>
            <g>
                <path fill="none" stroke="none" />
                <text fill="#000000" stroke="none" font-family="Arial" font-size="18px"
                    font-style="normal" font-weight="normal" text-decoration="undefined" x="797"
                    y="310" text-anchor="start" dominant-baseline="central"
                    transform="matrix(1 0 0 1 -237 -213)"></text>
            </g>
        </g>
        <g>
            <rect fill="#C0C0C0" stroke="none" x="343" y="479" width="163.03125" height="76"
                transform="matrix(1 0 0 1 -237 -213)" fill-opacity="0.2" />
        </g>
        <g>
            <rect fill="#ffffff" stroke="none" x="336" y="472" width="163.03125" height="76"
                transform="matrix(1 0 0 1 -237 -213)" />
        </g>
        <g>
            <path fill="none" stroke="#000000" paint-order="fill stroke markers"
                d=" M 99 259 L 262.03125 259 L 262.03125 335 L 99 335 L 99 259 Z Z"
                stroke-miterlimit="10" stroke-dasharray="" />
        </g>
        <g>
            <path fill="none" stroke="#000000" paint-order="fill stroke markers"
                d=" M 99 287 L 262.03125 287" stroke-miterlimit="10" stroke-dasharray="" />
        </g>
        <g>
            <path fill="none" stroke="#000000" paint-order="fill stroke markers"
                d=" M 134.0048828125 287 L 134.0048828125 335" stroke-miterlimit="10"
                stroke-dasharray="" />
        </g>
        <g>
            <path fill="none" stroke="#000000" paint-order="fill stroke markers"
                d=" M 208.033203125 287 L 208.033203125 335" stroke-miterlimit="10"
                stroke-dasharray="" />
        </g>
        <g>
            <g>
                <path fill="none" stroke="none" />
                <text fill="#000000" stroke="none" font-family="Arial" font-size="18px"
                    font-style="normal" font-weight="bold" text-decoration="undefined"
                    x="417.515625" y="486" text-anchor="middle" dominant-baseline="central"
                    transform="matrix(1 0 0 1 -237 -213)">organises</text>
            </g>
        </g>
        <g>
            <g>
                <path fill="none" stroke="none" />
                <text fill="#000000" stroke="none" font-family="Arial" font-size="18px"
                    font-style="normal" font-weight="normal" text-decoration="undefined" x="341"
                    y="505" text-anchor="start" dominant-baseline="text-before-edge"
                    transform="matrix(1 0 0 1 -237 -213)">PK</text>
            </g>
        </g>
        <g>
            <g>
                <path fill="none" stroke="none" />
                <text fill="#000000" stroke="none" font-family="Arial" font-size="18px"
                    font-style="normal" font-weight="normal" text-decoration="undefined"
                    x="376.0048828125" y="505" text-anchor="start"
                    dominant-baseline="text-before-edge" transform="matrix(1 0 0 1 -237 -213)">
                    club_id</text>
            </g>
        </g>
        <g>
            <g>
                <path fill="none" stroke="none" />
                <text fill="#000000" stroke="none" font-family="Arial" font-size="18px"
                    font-style="normal" font-weight="normal" text-decoration="undefined"
                    x="450.033203125" y="505" text-anchor="start"
                    dominant-baseline="text-before-edge" transform="matrix(1 0 0 1 -237 -213)">UUID</text>
            </g>
        </g>
        <g>
            <g>
                <path fill="none" stroke="none" />
                <text fill="#000000" stroke="none" font-family="Arial" font-size="18px"
                    font-style="normal" font-weight="normal" text-decoration="undefined" x="341"
                    y="514" text-anchor="start" dominant-baseline="central"
                    transform="matrix(1 0 0 1 -237 -213)"></text>
            </g>
        </g>
        <g>
            <g>
                <path fill="none" stroke="none" />
                <text fill="#000000" stroke="none" font-family="Arial" font-size="18px"
                    font-style="normal" font-weight="normal" text-decoration="undefined" x="341"
                    y="525" text-anchor="start" dominant-baseline="text-before-edge"
                    transform="matrix(1 0 0 1 -237 -213)">FK</text>
            </g>
        </g>
        <g>
            <g>
                <path fill="none" stroke="none" />
                <text fill="#000000" stroke="none" font-family="Arial" font-size="18px"
                    font-style="normal" font-weight="normal" text-decoration="undefined"
                    x="376.0048828125" y="525" text-anchor="start"
                    dominant-baseline="text-before-edge" transform="matrix(1 0 0 1 -237 -213)">
                    user_id</text>
            </g>
        </g>
        <g>
            <g>
                <path fill="none" stroke="none" />
                <text fill="#000000" stroke="none" font-family="Arial" font-size="18px"
                    font-style="normal" font-weight="normal" text-decoration="undefined"
                    x="450.033203125" y="525" text-anchor="start"
                    dominant-baseline="text-before-edge" transform="matrix(1 0 0 1 -237 -213)">UUID</text>
            </g>
        </g>
        <g>
            <g>
                <path fill="none" stroke="none" />
                <text fill="#000000" stroke="none" font-family="Arial" font-size="18px"
                    font-style="normal" font-weight="normal" text-decoration="undefined" x="341"
                    y="534" text-anchor="start" dominant-baseline="central"
                    transform="matrix(1 0 0 1 -237 -213)"></text>
            </g>
        </g>
        <g>
            <rect fill="#C0C0C0" stroke="none" x="319" y="255" width="377.044921875" height="96"
                transform="matrix(1 0 0 1 -237 -213)" fill-opacity="0.2" />
        </g>
        <g>
            <rect fill="#ffffff" stroke="none" x="312" y="248" width="377.044921875" height="96"
                transform="matrix(1 0 0 1 -237 -213)" />
        </g>
        <g>
            <path fill="none" stroke="#000000" paint-order="fill stroke markers"
                d=" M 75 35 L 452.044921875 35 L 452.044921875 131 L 75 131 L 75 35 Z Z"
                stroke-miterlimit="10" stroke-dasharray="" />
        </g>
        <g>
            <path fill="none" stroke="#000000" paint-order="fill stroke markers"
                d=" M 75 63 L 452.044921875 63" stroke-miterlimit="10" stroke-dasharray="" />
        </g>
        <g>
            <path fill="none" stroke="#000000" paint-order="fill stroke markers"
                d=" M 126.994140625 63 L 126.994140625 131" stroke-miterlimit="10"
                stroke-dasharray="" />
        </g>
        <g>
            <path fill="none" stroke="#000000" paint-order="fill stroke markers"
                d=" M 201.0224609375 63 L 201.0224609375 131" stroke-miterlimit="10"
                stroke-dasharray="" />
        </g>
        <g>
            <g>
                <path fill="none" stroke="none" />
                <text fill="#000000" stroke="none" font-family="Arial" font-size="18px"
                    font-style="normal" font-weight="bold" text-decoration="undefined"
                    x="500.5224609375" y="262" text-anchor="middle" dominant-baseline="central"
                    transform="matrix(1 0 0 1 -237 -213)">players_lists</text>
            </g>
        </g>
        <g>
            <g>
                <path fill="none" stroke="none" />
                <text fill="#000000" stroke="none" font-family="Arial" font-size="18px"
                    font-style="normal" font-weight="normal" text-decoration="undefined" x="317"
                    y="281" text-anchor="start" dominant-baseline="text-before-edge"
                    transform="matrix(1 0 0 1 -237 -213)">PK</text>
            </g>
        </g>
        <g>
            <g>
                <path fill="none" stroke="none" />
                <text fill="#000000" stroke="none" font-family="Arial" font-size="18px"
                    font-style="normal" font-weight="normal" text-decoration="undefined"
                    x="368.994140625" y="281" text-anchor="start"
                    dominant-baseline="text-before-edge" transform="matrix(1 0 0 1 -237 -213)">id</text>
            </g>
        </g>
        <g>
            <g>
                <path fill="none" stroke="none" />
                <text fill="#000000" stroke="none" font-family="Arial" font-size="18px"
                    font-style="normal" font-weight="normal" text-decoration="undefined"
                    x="443.0224609375" y="281" text-anchor="start"
                    dominant-baseline="text-before-edge" transform="matrix(1 0 0 1 -237 -213)">UUID</text>
            </g>
        </g>
        <g>
            <g>
                <path fill="none" stroke="none" />
                <text fill="#000000" stroke="none" font-family="Arial" font-size="18px"
                    font-style="normal" font-weight="normal" text-decoration="undefined" x="317"
                    y="290" text-anchor="start" dominant-baseline="central"
                    transform="matrix(1 0 0 1 -237 -213)"></text>
            </g>
        </g>
        <g>
            <g>
                <path fill="none" stroke="none" />
                <text fill="#000000" stroke="none" font-family="Arial" font-size="18px"
                    font-style="normal" font-weight="normal" text-decoration="undefined" x="317"
                    y="301" text-anchor="start" dominant-baseline="text-before-edge"
                    transform="matrix(1 0 0 1 -237 -213)">U</text>
            </g>
        </g>
        <g>
            <g>
                <path fill="none" stroke="none" />
                <text fill="#000000" stroke="none" font-family="Arial" font-size="18px"
                    font-style="normal" font-weight="normal" text-decoration="undefined"
                    x="368.994140625" y="301" text-anchor="start"
                    dominant-baseline="text-before-edge" transform="matrix(1 0 0 1 -237 -213)">name</text>
            </g>
        </g>
        <g>
            <g>
                <path fill="none" stroke="none" />
                <text fill="#000000" stroke="none" font-family="Arial" font-size="18px"
                    font-style="normal" font-weight="normal" text-decoration="undefined"
                    x="443.0224609375" y="301" text-anchor="start"
                    dominant-baseline="text-before-edge" transform="matrix(1 0 0 1 -237 -213)">CHARACTER
                    VARYING(255)</text>
            </g>
        </g>
        <g>
            <g>
                <path fill="none" stroke="none" />
                <text fill="#000000" stroke="none" font-family="Arial" font-size="18px"
                    font-style="normal" font-weight="normal" text-decoration="undefined" x="317"
                    y="310" text-anchor="start" dominant-baseline="central"
                    transform="matrix(1 0 0 1 -237 -213)"></text>
            </g>
        </g>
        <g>
            <g>
                <path fill="none" stroke="none" />
                <text fill="#000000" stroke="none" font-family="Arial" font-size="18px"
                    font-style="normal" font-weight="normal" text-decoration="undefined" x="317"
                    y="321" text-anchor="start" dominant-baseline="text-before-edge"
                    transform="matrix(1 0 0 1 -237 -213)">FK,U</text>
            </g>
        </g>
        <g>
            <g>
                <path fill="none" stroke="none" />
                <text fill="#000000" stroke="none" font-family="Arial" font-size="18px"
                    font-style="normal" font-weight="normal" text-decoration="undefined"
                    x="368.994140625" y="321" text-anchor="start"
                    dominant-baseline="text-before-edge" transform="matrix(1 0 0 1 -237 -213)">
                    user_id</text>
            </g>
        </g>
        <g>
            <g>
                <path fill="none" stroke="none" />
                <text fill="#000000" stroke="none" font-family="Arial" font-size="18px"
                    font-style="normal" font-weight="normal" text-decoration="undefined"
                    x="443.0224609375" y="321" text-anchor="start"
                    dominant-baseline="text-before-edge" transform="matrix(1 0 0 1 -237 -213)">UUID</text>
            </g>
        </g>
        <g>
            <g>
                <path fill="none" stroke="none" />
                <text fill="#000000" stroke="none" font-family="Arial" font-size="18px"
                    font-style="normal" font-weight="normal" text-decoration="undefined" x="317"
                    y="330" text-anchor="start" dominant-baseline="central"
                    transform="matrix(1 0 0 1 -237 -213)"></text>
            </g>
        </g>
        <g>
            <path fill="none" stroke="#000000" paint-order="fill stroke markers"
                d=" M 555 75 L 452 75" stroke-miterlimit="10" stroke-dasharray="" />
        </g>
        <g>
            <path fill="none" stroke="#000000" paint-order="fill stroke markers"
                d=" M 459 68 L 459 82" stroke-miterlimit="10" stroke-dasharray="" />
        </g>
        <g>
            <path fill="none" stroke="#000000" paint-order="fill stroke markers"
                d=" M 466 68 L 466 82" stroke-miterlimit="10" stroke-dasharray="" />
        </g>
        <g>
            <path fill="none" stroke="#000000" paint-order="fill stroke markers"
                d=" M 541 75 L 555 82" stroke-miterlimit="10" stroke-dasharray="" />
        </g>
        <g>
            <path fill="none" stroke="#000000" paint-order="fill stroke markers"
                d=" M 541 75 L 555 68" stroke-miterlimit="10" stroke-dasharray="" />
        </g>
        <g>
            <path fill="#FFFFFF" stroke="none" paint-order="stroke fill markers"
                d=" M 526 75 C 526 71.13400639999998 529.1340064 68 533 68 C 536.8659936 68 540 71.13400639999998 540 75 C 540 78.86599360000002 536.8659936 82 533 82 C 529.1340064 82 526 78.86599360000002 526 75 Z" />
        </g>
        <g>
            <path fill="none" stroke="#000000" paint-order="fill stroke markers"
                d=" M 526 75 C 526 71.13400639999998 529.1340064 68 533 68 C 536.8659936 68 540 71.13400639999998 540 75 C 540 78.86599360000002 536.8659936 82 533 82 C 529.1340064 82 526 78.86599360000002 526 75 Z"
                stroke-miterlimit="10" stroke-dasharray="" />
        </g>
        <g>
            <rect fill="#ffffff" stroke="none" x="656" y="223" width="161.0859375" height="18"
                transform="matrix(1 0 0 1 -237 -213)" />
        </g>
        <g>
            <g>
                <path fill="none" stroke="none" />
                <text fill="#000000" stroke="none" font-family="Arial" font-size="18px"
                    font-style="normal" font-weight="normal" text-decoration="undefined"
                    x="736.54296875" y="232" text-anchor="middle" dominant-baseline="central"
                    transform="matrix(1 0 0 1 -237 -213)">fk_contains_by_lists</text>
            </g>
        </g>
        <g>
            <rect fill="#ffffff" stroke="none" x="766" y="293" width="0" height="18"
                transform="matrix(1 0 0 1 -237 -213)" />
        </g>
        <g>
            <g>
                <path fill="none" stroke="none" />
                <text fill="#000000" stroke="none" font-family="Arial" font-size="18px"
                    font-style="normal" font-weight="normal" text-decoration="undefined" x="766"
                    y="302" text-anchor="middle" dominant-baseline="central"
                    transform="matrix(1 0 0 1 -237 -213)"></text>
            </g>
        </g>
        <g>
            <rect fill="#ffffff" stroke="none" x="712" y="295" width="46.01953125" height="18"
                transform="matrix(1 0 0 1 -237 -213)" />
        </g>
        <g>
            <g>
                <path fill="none" stroke="none" />
                <text fill="#000000" stroke="none" font-family="Arial" font-size="18px"
                    font-style="normal" font-weight="normal" text-decoration="undefined"
                    x="735.009765625" y="304" text-anchor="middle" dominant-baseline="central"
                    transform="matrix(1 0 0 1 -237 -213)">list_id</text>
            </g>
        </g>
        <g>
            <rect fill="#C0C0C0" stroke="none" x="527" y="391" width="467.1328125" height="116"
                transform="matrix(1 0 0 1 -237 -213)" fill-opacity="0.2" />
        </g>
        <g>
            <rect fill="#ffffff" stroke="none" x="520" y="384" width="467.1328125" height="116"
                transform="matrix(1 0 0 1 -237 -213)" />
        </g>
        <g>
            <path fill="none" stroke="#000000" paint-order="fill stroke markers"
                d=" M 283 171 L 750.1328125 171 L 750.1328125 287 L 283 287 L 283 171 Z Z"
                stroke-miterlimit="10" stroke-dasharray="" />
        </g>
        <g>
            <path fill="none" stroke="#000000" paint-order="fill stroke markers"
                d=" M 283 199 L 750.1328125 199" stroke-miterlimit="10" stroke-dasharray="" />
        </g>
        <g>
            <path fill="none" stroke="#000000" paint-order="fill stroke markers"
                d=" M 318.0048828125 199 L 318.0048828125 287" stroke-miterlimit="10"
                stroke-dasharray="" />
        </g>
        <g>
            <path fill="none" stroke="#000000" paint-order="fill stroke markers"
                d=" M 499.1103515625 199 L 499.1103515625 287" stroke-miterlimit="10"
                stroke-dasharray="" />
        </g>
        <g>
            <g>
                <path fill="none" stroke="none" />
                <text fill="#000000" stroke="none" font-family="Arial" font-size="18px"
                    font-style="normal" font-weight="bold" text-decoration="undefined"
                    x="753.56640625" y="398" text-anchor="middle" dominant-baseline="central"
                    transform="matrix(1 0 0 1 -237 -213)">users</text>
            </g>
        </g>
        <g>
            <g>
                <path fill="none" stroke="none" />
                <text fill="#000000" stroke="none" font-family="Arial" font-size="18px"
                    font-style="normal" font-weight="normal" text-decoration="undefined" x="525"
                    y="417" text-anchor="start" dominant-baseline="text-before-edge"
                    transform="matrix(1 0 0 1 -237 -213)">PK</text>
            </g>
        </g>
        <g>
            <g>
                <path fill="none" stroke="none" />
                <text fill="#000000" stroke="none" font-family="Arial" font-size="18px"
                    font-style="normal" font-weight="normal" text-decoration="undefined"
                    x="560.0048828125" y="417" text-anchor="start"
                    dominant-baseline="text-before-edge" transform="matrix(1 0 0 1 -237 -213)">id</text>
            </g>
        </g>
        <g>
            <g>
                <path fill="none" stroke="none" />
                <text fill="#000000" stroke="none" font-family="Arial" font-size="18px"
                    font-style="normal" font-weight="normal" text-decoration="undefined"
                    x="741.1103515625" y="417" text-anchor="start"
                    dominant-baseline="text-before-edge" transform="matrix(1 0 0 1 -237 -213)">UUID</text>
            </g>
        </g>
        <g>
            <g>
                <path fill="none" stroke="none" />
                <text fill="#000000" stroke="none" font-family="Arial" font-size="18px"
                    font-style="normal" font-weight="normal" text-decoration="undefined" x="525"
                    y="426" text-anchor="start" dominant-baseline="central"
                    transform="matrix(1 0 0 1 -237 -213)"></text>
            </g>
        </g>
        <g>
            <g>
                <path fill="none" stroke="none" />
                <text fill="#000000" stroke="none" font-family="Arial" font-size="18px"
                    font-style="normal" font-weight="normal" text-decoration="undefined" x="525"
                    y="437" text-anchor="start" dominant-baseline="text-before-edge"
                    transform="matrix(1 0 0 1 -237 -213)">U</text>
            </g>
        </g>
        <g>
            <g>
                <path fill="none" stroke="none" />
                <text fill="#000000" stroke="none" font-family="Arial" font-size="18px"
                    font-style="normal" font-weight="normal" text-decoration="undefined"
                    x="560.0048828125" y="437" text-anchor="start"
                    dominant-baseline="text-before-edge" transform="matrix(1 0 0 1 -237 -213)">name</text>
            </g>
        </g>
        <g>
            <g>
                <path fill="none" stroke="none" />
                <text fill="#000000" stroke="none" font-family="Arial" font-size="18px"
                    font-style="normal" font-weight="normal" text-decoration="undefined"
                    x="741.1103515625" y="437" text-anchor="start"
                    dominant-baseline="text-before-edge" transform="matrix(1 0 0 1 -237 -213)">CHARACTER
                    VARYING(255)</text>
            </g>
        </g>
        <g>
            <g>
                <path fill="none" stroke="none" />
                <text fill="#000000" stroke="none" font-family="Arial" font-size="18px"
                    font-style="normal" font-weight="normal" text-decoration="undefined" x="525"
                    y="446" text-anchor="start" dominant-baseline="central"
                    transform="matrix(1 0 0 1 -237 -213)"></text>
            </g>
        </g>
        <g>
            <g>
                <path fill="none" stroke="none" />
                <text fill="#000000" stroke="none" font-family="Arial" font-size="18px"
                    font-style="normal" font-weight="normal" text-decoration="undefined" x="525"
                    y="457" text-anchor="start" dominant-baseline="text-before-edge"
                    transform="matrix(1 0 0 1 -237 -213)"></text>
            </g>
        </g>
        <g>
            <g>
                <path fill="none" stroke="none" />
                <text fill="#000000" stroke="none" font-family="Arial" font-size="18px"
                    font-style="normal" font-weight="normal" text-decoration="undefined"
                    x="560.0048828125" y="457" text-anchor="start"
                    dominant-baseline="text-before-edge" transform="matrix(1 0 0 1 -237 -213)">
                    max_players_in_list</text>
            </g>
        </g>
        <g>
            <g>
                <path fill="none" stroke="none" />
                <text fill="#000000" stroke="none" font-family="Arial" font-size="18px"
                    font-style="normal" font-weight="normal" text-decoration="undefined"
                    x="741.1103515625" y="457" text-anchor="start"
                    dominant-baseline="text-before-edge" transform="matrix(1 0 0 1 -237 -213)">
                    INTEGER</text>
            </g>
        </g>
        <g>
            <g>
                <path fill="none" stroke="none" />
                <text fill="#000000" stroke="none" font-family="Arial" font-size="18px"
                    font-style="normal" font-weight="normal" text-decoration="undefined" x="525"
                    y="466" text-anchor="start" dominant-baseline="central"
                    transform="matrix(1 0 0 1 -237 -213)"></text>
            </g>
        </g>
        <g>
            <g>
                <path fill="none" stroke="none" />
                <text fill="#000000" stroke="none" font-family="Arial" font-size="18px"
                    font-style="normal" font-weight="normal" text-decoration="undefined" x="525"
                    y="477" text-anchor="start" dominant-baseline="text-before-edge"
                    transform="matrix(1 0 0 1 -237 -213)"></text>
            </g>
        </g>
        <g>
            <g>
                <path fill="none" stroke="none" />
                <text fill="#000000" stroke="none" font-family="Arial" font-size="18px"
                    font-style="normal" font-weight="normal" text-decoration="undefined"
                    x="560.0048828125" y="477" text-anchor="start"
                    dominant-baseline="text-before-edge" transform="matrix(1 0 0 1 -237 -213)">
                    max_lists_count</text>
            </g>
        </g>
        <g>
            <g>
                <path fill="none" stroke="none" />
                <text fill="#000000" stroke="none" font-family="Arial" font-size="18px"
                    font-style="normal" font-weight="normal" text-decoration="undefined"
                    x="741.1103515625" y="477" text-anchor="start"
                    dominant-baseline="text-before-edge" transform="matrix(1 0 0 1 -237 -213)">
                    INTEGER</text>
            </g>
        </g>
        <g>
            <g>
                <path fill="none" stroke="none" />
                <text fill="#000000" stroke="none" font-family="Arial" font-size="18px"
                    font-style="normal" font-weight="normal" text-decoration="undefined" x="525"
                    y="486" text-anchor="start" dominant-baseline="central"
                    transform="matrix(1 0 0 1 -237 -213)"></text>
            </g>
        </g>
        <g>
            <path fill="none" stroke="#000000" paint-order="fill stroke markers"
                d=" M 99 297 L 51 297 L 51 297 A 8 8 0 0 1 43 289 L 43 227 L 43 227 A 8 8 0 0 1 51 219 L 283 219"
                stroke-miterlimit="10" stroke-dasharray="" />
        </g>
        <g>
            <path fill="none" stroke="#000000" paint-order="fill stroke markers"
                d=" M 276 226 L 276 212" stroke-miterlimit="10" stroke-dasharray="" />
        </g>
        <g>
            <path fill="none" stroke="#000000" paint-order="fill stroke markers"
                d=" M 269 226 L 269 212" stroke-miterlimit="10" stroke-dasharray="" />
        </g>
        <g>
            <path fill="none" stroke="#000000" paint-order="fill stroke markers"
                d=" M 85 297 L 99 304" stroke-miterlimit="10" stroke-dasharray="" />
        </g>
        <g>
            <path fill="none" stroke="#000000" paint-order="fill stroke markers"
                d=" M 85 297 L 99 290" stroke-miterlimit="10" stroke-dasharray="" />
        </g>
        <g>
            <path fill="#FFFFFF" stroke="none" paint-order="stroke fill markers"
                d=" M 70 297 C 70 293.1340064 73.13400639999998 290 77 290 C 80.86599360000002 290 84 293.1340064 84 297 C 84 300.8659936 80.86599360000002 304 77 304 C 73.13400639999998 304 70 300.8659936 70 297 Z" />
        </g>
        <g>
            <path fill="none" stroke="#000000" paint-order="fill stroke markers"
                d=" M 70 297 C 70 293.1340064 73.13400639999998 290 77 290 C 80.86599360000002 290 84 293.1340064 84 297 C 84 300.8659936 80.86599360000002 304 77 304 C 73.13400639999998 304 70 300.8659936 70 297 Z"
                stroke-miterlimit="10" stroke-dasharray="" />
        </g>
        <g>
            <rect fill="#ffffff" stroke="none" x="247" y="446" width="176.1064453125" height="18"
                transform="matrix(1 0 0 1 -237 -213)" />
        </g>
        <g>
            <g>
                <path fill="none" stroke="none" />
                <text fill="#000000" stroke="none" font-family="Arial" font-size="18px"
                    font-style="normal" font-weight="normal" text-decoration="undefined"
                    x="335.05322265625" y="455" text-anchor="middle" dominant-baseline="central"
                    transform="matrix(1 0 0 1 -237 -213)">fk_organises_by_user</text>
            </g>
        </g>
        <g>
            <rect fill="#ffffff" stroke="none" x="310" y="515" width="0" height="18"
                transform="matrix(1 0 0 1 -237 -213)" />
        </g>
        <g>
            <g>
                <path fill="none" stroke="none" />
                <text fill="#000000" stroke="none" font-family="Arial" font-size="18px"
                    font-style="normal" font-weight="normal" text-decoration="undefined" x="310"
                    y="524" text-anchor="middle" dominant-baseline="central"
                    transform="matrix(1 0 0 1 -237 -213)"></text>
            </g>
        </g>
        <g>
            <rect fill="#ffffff" stroke="none" x="440" y="440" width="59.0361328125" height="18"
                transform="matrix(1 0 0 1 -237 -213)" />
        </g>
        <g>
            <g>
                <path fill="none" stroke="none" />
                <text fill="#000000" stroke="none" font-family="Arial" font-size="18px"
                    font-style="normal" font-weight="normal" text-decoration="undefined"
                    x="469.51806640625" y="449" text-anchor="middle" dominant-baseline="central"
                    transform="matrix(1 0 0 1 -237 -213)">user_id</text>
            </g>
        </g>
        <g>
            <path fill="none" stroke="#000000" paint-order="fill stroke markers"
                d=" M 75 115 L 51 115 L 51 115 A 8 8 0 0 0 43 123 L 43 195 L 43 195 A 8 8 0 0 0 51 203 L 283 203"
                stroke-miterlimit="10" stroke-dasharray="" />
        </g>
        <g>
            <path fill="none" stroke="#000000" paint-order="fill stroke markers"
                d=" M 276 210 L 276 196" stroke-miterlimit="10" stroke-dasharray="" />
        </g>
        <g>
            <path fill="none" stroke="#000000" paint-order="fill stroke markers"
                d=" M 269 210 L 269 196" stroke-miterlimit="10" stroke-dasharray="" />
        </g>
        <g>
            <path fill="none" stroke="#000000" paint-order="fill stroke markers"
                d=" M 61 115 L 75 122" stroke-miterlimit="10" stroke-dasharray="" />
        </g>
        <g>
            <path fill="none" stroke="#000000" paint-order="fill stroke markers"
                d=" M 61 115 L 75 108" stroke-miterlimit="10" stroke-dasharray="" />
        </g>
        <g>
            <path fill="#FFFFFF" stroke="none" paint-order="stroke fill markers"
                d=" M 46 115 C 46 111.13400639999998 49.134006399999976 108 53 108 C 56.865993600000024 108 60 111.13400639999998 60 115 C 60 118.86599360000002 56.865993600000024 122 53 122 C 49.134006399999976 122 46 118.86599360000002 46 115 Z" />
        </g>
        <g>
            <path fill="none" stroke="#000000" paint-order="fill stroke markers"
                d=" M 46 115 C 46 111.13400639999998 49.134006399999976 108 53 108 C 56.865993600000024 108 60 111.13400639999998 60 115 C 60 118.86599360000002 56.865993600000024 122 53 122 C 49.134006399999976 122 46 118.86599360000002 46 115 Z"
                stroke-miterlimit="10" stroke-dasharray="" />
        </g>
        <g>
            <rect fill="#ffffff" stroke="none" x="288" y="352" width="188.0947265625" height="18"
                transform="matrix(1 0 0 1 -237 -213)" />
        </g>
        <g>
            <g>
                <path fill="none" stroke="none" />
                <text fill="#000000" stroke="none" font-family="Arial" font-size="18px"
                    font-style="normal" font-weight="normal" text-decoration="undefined"
                    x="382.04736328125" y="361" text-anchor="middle" dominant-baseline="central"
                    transform="matrix(1 0 0 1 -237 -213)">fk_player_lists_by_user</text>
            </g>
        </g>
        <g>
            <rect fill="#ffffff" stroke="none" x="286" y="333" width="0" height="18"
                transform="matrix(1 0 0 1 -237 -213)" />
        </g>
        <g>
            <g>
                <path fill="none" stroke="none" />
                <text fill="#000000" stroke="none" font-family="Arial" font-size="18px"
                    font-style="normal" font-weight="normal" text-decoration="undefined" x="286"
                    y="342" text-anchor="middle" dominant-baseline="central"
                    transform="matrix(1 0 0 1 -237 -213)"></text>
            </g>
        </g>
        <g>
            <rect fill="#ffffff" stroke="none" x="432" y="391" width="64" height="18"
                transform="matrix(1 0 0 1 -237 -213)" />
        </g>
        <g>
            <g>
                <path fill="none" stroke="none" />
                <text fill="#000000" stroke="none" font-family="Arial" font-size="18px"
                    font-style="normal" font-weight="normal" text-decoration="undefined" x="464"
                    y="400" text-anchor="middle" dominant-baseline="central"
                    transform="matrix(1 0 0 1 -237 -213)">user_id</text>
            </g>
        </g>
    </g>
</svg>
